<?xml version="1.0"?>

<svg width="100%" height="100%" viewBox="0 0 1000 250" version="1.1" xmlns="http://www.w3.org/2000/svg" xmlns:xlink="http://www.w3.org/1999/xlink" xml:space="preserve" xmlns:serif="http://www.serif.com/" style="fill-rule:evenodd;clip-rule:evenodd;stroke-linejoin:round;stroke-miterlimit:2;">
    <g transform="matrix(0.1,0,0,-0.1,0,250)">
        <path d="M5690,2050C5602,2036 5480,1993 5411,1953C5376,1932 5317,1883 5280,1842L5212,1770L5201,1803C5177,1875 5092,1948 4990,1986C4884,2024 4795,2031 4358,2037L3930,2043L3930,2016C3930,1990 3931,1990 4000,1990L4070,1990L4070,510L4000,510C3932,510 3930,509 3930,485L3930,460L4258,460C4610,460 4815,471 4932,495C5027,515 5137,568 5195,621L5241,663L5283,622C5419,489 5660,424 5919,449C6082,466 6188,502 6293,577L6341,611L6372,585C6492,484 6746,426 6964,450C7105,466 7144,480 7148,513C7151,539 7154,540 7206,540C7236,540 7260,542 7260,544C7260,546 7310,678 7370,839C7431,999 7480,1135 7480,1140C7480,1146 7378,1150 7200,1150L6920,1150L6920,1125C6920,1101 6922,1100 6990,1100L7060,1100L7060,845C7060,554 7055,530 6996,505C6943,483 6835,486 6783,511C6701,551 6632,662 6572,850C6523,1006 6506,1123 6507,1320C6507,1699 6579,1902 6745,1988C6787,2010 6808,2014 6880,2015C6957,2015 6972,2012 7032,1982C7136,1931 7257,1789 7342,1616C7368,1562 7379,1550 7398,1550C7422,1550 7422,1551 7416,1618C7413,1655 7408,1763 7404,1858C7401,1953 7394,2032 7390,2035C7386,2037 7373,2028 7362,2015C7334,1983 7321,1984 7175,2020C6885,2092 6618,2062 6429,1935L6353,1884L6320,1912C6269,1954 6163,2006 6080,2030C5995,2054 5782,2065 5690,2050ZM5945,1991C6020,1957 6067,1875 6091,1733C6107,1642 6107,880 6092,790C6066,641 6023,559 5950,515C5899,486 5752,486 5695,517C5645,543 5628,562 5596,626C5545,728 5535,826 5535,1255C5535,1583 5538,1660 5553,1738C5590,1939 5662,2010 5825,2010C5881,2010 5917,2004 5945,1991ZM4687,1974C4757,1940 4780,1862 4780,1655C4780,1388 4737,1314 4578,1302L4510,1297L4510,1990L4581,1990C4626,1990 4665,1984 4687,1974ZM5077,1314C5074,1283 5069,1256 5066,1253C5063,1250 5026,1257 4982,1269C4939,1280 4893,1290 4879,1291C4866,1291 4895,1305 4945,1321C4994,1338 5039,1355 5044,1360C5050,1366 5060,1370 5068,1370C5080,1370 5082,1359 5077,1314ZM4680,1244C4752,1223 4803,1172 4824,1100C4835,1062 4840,1006 4840,905C4840,752 4828,665 4800,610C4761,535 4709,510 4589,510L4510,510L4510,1260L4568,1260C4600,1260 4651,1253 4680,1244Z" style="fill-rule:nonzero;"></path>
        <path d="M8743,2046C8537,1999 8387,1840 8360,1641C8337,1475 8389,1308 8493,1214C8556,1157 8691,1091 8817,1056C8931,1024 9041,985 9100,955C9257,875 9298,691 9185,574C9094,480 8933,463 8788,533C8717,567 8631,632 8597,676C8584,694 8375,1252 8144,1890L8095,2025L7995,2028L7895,2030L7781,1723C7609,1260 7435,791 7380,645L7331,515L7256,512C7113,507 7180,491 7359,488C7548,485 7570,486 7570,501C7570,506 7532,510 7485,510C7438,510 7400,512 7400,514C7400,517 7438,625 7485,756C7532,886 7570,995 7570,997C7570,999 7679,999 7812,998L8054,995L8137,753L8219,510L8140,510C8096,510 8060,506 8060,501C8060,495 8175,490 8343,487C8561,484 8644,480 8710,466C8811,445 9022,441 9095,459C9290,507 9433,655 9475,856C9524,1089 9442,1291 9255,1396C9181,1436 9150,1448 8950,1506C8865,1531 8767,1565 8732,1582C8594,1650 8547,1767 8609,1888C8634,1937 8654,1954 8723,1986C8774,2009 8791,2012 8868,2008C8939,2006 8966,2000 9015,1976C9098,1936 9217,1812 9296,1684C9390,1533 9392,1535 9385,1797C9381,1917 9376,2021 9374,2028C9371,2038 9361,2035 9339,2016C9301,1983 9291,1984 9150,2021C9009,2058 8840,2068 8743,2046ZM7934,1355C7992,1179 8040,1031 8040,1027C8040,1023 7939,1020 7815,1020C7652,1020 7590,1023 7590,1032C7590,1038 7638,1176 7696,1339C7830,1709 7820,1683 7824,1679C7826,1677 7875,1531 7934,1355Z" style="fill-rule:nonzero;"></path>
    </g>
    <g transform="matrix(0.055109,-1.42657e-33,-1.42657e-33,-0.055109,11.0118,315.696)">
        <g>
            <g transform="matrix(6.12323e-17,-1,-1,-6.12323e-17,5371.29,5369.92)">
                <path d="M2255,5005C1907,4928 1638,4677 1549,4345C1517,4226 1512,4034 1538,3909C1585,3680 1733,3457 1917,3334C1975,3296 2140,3215 2184,3204C2218,3196 2218,3209 2181,3302C2118,3458 2098,3560 2092,3745C2087,3928 2095,4000 2135,4135C2178,4277 2246,4351 2369,4387C2511,4428 2650,4362 2716,4222C2755,4139 2759,4051 2760,3299L2740.6,2614.46L2682.89,2614.3C2628.57,2614.3 1759.12,2606.41 1354.12,2606.41C1354.12,2606.41 1248.59,2591.8 1109.02,2674.16C1072.05,2695.97 1027,2754 1009,2817C989,2884 994,2985 1019,3042C1059,3136 1160,3207 1343,3271C1389,3287 1410,3300 1410,3311C1410,3325 1362,3436 1295,3575C1287,3592 1256,3658 1226,3723C1162,3859 1170,3855 1038,3814C772,3730 559,3544 446,3296C414,3226 371.943,3059.96 370,3008C364.196,2852.8 368.392,2937.21 374,2797C415,2393 753,2047 1164,1989C1225,1980 1335.9,1987 2131.94,1987C3035.91,1987 3368.33,1978.59 3372.33,1981.59C3372.33,2090.56 3372.33,2611.69 3372.33,3405C3368.33,3874 3375,4202 3368,4245C3324,4531 3129,4794 2858,4931C2732,4995 2614,5020 2451,5019C2376,5018 2288,5012 2255,5005Z" style="fill:rgb(239,143,189);fill-rule:nonzero;"></path>
            </g>
            <g transform="matrix(-6.12323e-17,-1,1,-6.12323e-17,1552.78,5369.62)">
                <path d="M2255,5005C1907,4928 1638,4677 1549,4345C1517,4226 1512,4034 1538,3909C1585,3680 1733,3457 1917,3334C1975,3296 2140,3215 2184,3204C2218,3196 2218,3209 2181,3302C2118,3458 2098,3560 2092,3745C2087,3928 2095,4000 2135,4135C2178,4277 2246,4351 2369,4387C2511,4428 2650,4362 2716,4222C2755,4139 2759,4051 2760,3299L2740.6,2614.46L2682.89,2614.3C2628.57,2614.3 1759.12,2606.41 1354.12,2606.41C1354.12,2606.41 1248.59,2591.8 1109.02,2674.16C1072.05,2695.97 1027,2754 1009,2817C989,2884 994,2985 1019,3042C1059,3136 1160,3207 1343,3271C1389,3287 1410,3300 1410,3311C1410,3325 1362,3436 1295,3575C1287,3592 1256,3658 1226,3723C1162,3859 1170,3855 1038,3814C772,3730 559,3544 446,3296C414,3226 371.943,3059.96 370,3008C364.196,2852.8 368.392,2937.21 374,2797C415,2393 753,2047 1164,1989C1225,1980 1335.9,1987 2131.94,1987C3035.91,1987 3368.33,1978.59 3372.33,1981.59C3372.33,2090.56 3372.33,2611.69 3372.33,3405C3368.33,3874 3375,4202 3368,4245C3324,4531 3129,4794 2858,4931C2732,4995 2614,5020 2451,5019C2376,5018 2288,5012 2255,5005Z" style="fill:rgb(239,143,189);fill-rule:nonzero;"></path>
            </g>
        </g>
    </g>
</svg>