<?xml version="1.0"?>
<svg xmlns="http://www.w3.org/2000/svg" xmlns:xlink="http://www.w3.org/1999/xlink" width="4230" height="749" viewBox="0 0 4230 749">
  <defs>
    <clipPath id="clip-custom_1">
      <rect width="4230" height="749"></rect>
    </clipPath>
  </defs>
  <g id="custom_1" data-name="custom – 1" clip-path="url(#clip-custom_1)">
    <path id="Path_1" data-name="Path 1" d="M72,803.008H399.179c169.3,0,292.9-63.358,292.9-215,0-90.364-50.894-151.645-136.065-165.147,71.668-29.083,112.176-91.4,112.176-162.031,0-108.021-71.668-184.882-260.7-184.882H72ZM387.753,497.641c93.48,0,127.755,28.044,127.755,84.132,0,63.358-44.662,86.209-143.335,86.209H243.379V497.641ZM370.1,210.97c90.364,0,121.524,23.889,121.524,79.977,0,45.7-34.276,82.054-100.75,82.054H243.379V210.97ZM775.175,803.008H946.554V75.944H775.175Zm206.694,0h163.07l59.2-131.91h320.947l58.165,131.91h169.3L1433.687,75.944H1300.738Zm345.875-408.194c15.58-36.353,27.005-66.474,38.431-99.712h4.155c11.425,38.431,21.812,66.474,35.315,100.75l55.049,135.026h-194.23ZM2080.773,528.8H2275v83.093c-33.237,32.2-89.325,47.779-150.606,47.779-121.524,0-228.506-74.784-228.506-220.2,0-132.949,81.016-220.2,222.274-220.2,79.977,0,146.451,29.083,189.037,76.861l97.634-104.9C2337.323,105.027,2236.573,63.48,2105.7,63.48c-230.583,0-386.382,168.263-386.382,376,0,225.39,156.838,376,404.04,376,113.214,0,232.66-49.856,302.251-124.64V393.775H2080.773Zm756.147,0h194.23v83.093c-33.238,32.2-89.325,47.779-150.606,47.779-121.523,0-228.506-74.784-228.506-220.2,0-132.949,81.016-220.2,222.274-220.2,79.977,0,146.451,29.083,189.036,76.861l97.635-104.9C3093.47,105.027,2992.719,63.48,2861.848,63.48c-230.583,0-386.383,168.263-386.383,376,0,225.39,156.838,376,404.04,376,113.214,0,232.66-49.856,302.251-124.64V393.775H2836.92Zm438.316,274.207h171.379V75.944H3275.236Zm252.395-363.532c0,228.506,164.109,376,385.344,376,222.273,0,384.3-152.683,384.3-376,0-228.506-166.186-376-384.3-376C3695.894,63.48,3527.631,218.241,3527.631,439.476Zm176.573,0c0-154.761,106.982-220.2,208.771-220.2,94.518,0,207.732,65.436,207.732,220.2,0,150.606-98.673,220.2-207.732,220.2C3809.108,659.672,3704.2,588,3704.2,439.476Z" transform="translate(-72 -63.952)"></path>
  </g>
</svg>